# xmcd
#
# Track frame offsets:
#	150
#	10850
#	23945
#	34837
#	47102
#	59760
#	71765
#	82932
#	94332
#	106637
#	119347
#	129142
#	140195
#	151237
#	162307
#	175340
#
# Disc length: 2478 seconds
#
# Revision: 1
# Processed by: cddbd v1.5PL3 Copyright (c) Steve Scherf et al.
# Submitted via: audiograbber 1.80
#
DISCID=d609ac10
DTITLE=melvin smith - At His Best disc 1
DYEAR=1900
DGENRE=
TTITLE0=Up On The Hill 
TTITLE1=School Boy Blues 
TTITLE2=Reliefin' Blues 
TTITLE3=They Ain't Gonna Tell It Right 
TTITLE4=Rampaging Mama 
TTITLE5=Homesick Blues 
TTITLE6=Come Back My Darlin' 
TTITLE7=Real True Gal 
TTITLE8=Everybody's Got The Blues 
TTITLE9=I Remember 
TTITLE10=California Baby 
TTITLE11=Looped 
TTITLE12=Baby I'll Be There 
TTITLE13=I'm Out Of My Mind 
TTITLE14=Woman Trainer 
TTITLE15=Business Man's Blues 
EXTD=
EXTT0=
EXTT1=
EXTT2=
EXTT3=
EXTT4=
EXTT5=
EXTT6=
EXTT7=
EXTT8=
EXTT9=
EXTT10=
EXTT11=
EXTT12=
EXTT13=
EXTT14=
EXTT15=
PLAYORDER=
